<?xml version="1.0" encoding="UTF-8"?>
<svg version="1.1" xmlns="http://www.w3.org/2000/svg" width="255" height="266">
<path d="M0 0 C0.94359375 0.515625 1.8871875 1.03125 2.859375 1.5625 C9.0691086 5.1109192 14.55483044 9.37882646 20 14 C20.83660156 14.70125 21.67320312 15.4025 22.53515625 16.125 C46.95781591 37.26362351 60.75454541 68.23199262 64 100 C66.03886676 134.51223479 55.24446735 167.50763539 32.3125 193.4375 C30.88329338 194.96612969 29.44657496 196.48779593 28 198 C27.45214844 198.59941406 26.90429688 199.19882813 26.33984375 199.81640625 C4.52305978 222.91968362 -27.32681908 234.56599834 -58.54296875 236.18359375 C-89.94795467 236.78685337 -122.78395355 225.65256991 -145.875 204.0625 C-148.28394609 201.74092018 -150.64842861 199.37950808 -153 197 C-153.92683594 196.08347656 -154.85367188 195.16695312 -155.80859375 194.22265625 C-178.49731555 170.68443473 -188.61986196 137.50448122 -188.21484375 105.37109375 C-187.80843821 91.37408314 -184.65976762 78.1440615 -180 65 C-179.69320312 64.10152344 -179.38640625 63.20304687 -179.0703125 62.27734375 C-175.18941983 51.7165075 -169.07307898 41.71196314 -162 33 C-161.36835938 32.17371094 -160.73671875 31.34742188 -160.0859375 30.49609375 C-141.1925376 6.34689352 -111.40696902 -11.48522901 -80.74267578 -15.27929688 C-52.07067669 -18.34049107 -25.27583642 -14.05472518 0 0 Z " fill="#C9D1C5" transform="translate(189,25)"/>
<path d="M0 0 C7.57526864 -0.5256692 7.57526864 -0.5256692 10.47265625 1.84375 C12.91722066 5.47400133 14.11458729 9.52265426 15.3359375 13.6953125 C15.72736938 15.0248999 15.72736938 15.0248999 16.12670898 16.38134766 C16.41783569 17.38367432 16.41783569 17.38367432 16.71484375 18.40625 C17.25560547 18.30078857 17.79636719 18.19532715 18.35351562 18.08666992 C30.21410359 15.79632378 42.04854679 13.89971097 54.04467773 12.47900391 C59.8221913 11.78810783 65.54847482 10.98452619 71.27734375 9.96875 C79.06970819 8.60189566 86.89689987 7.52169341 94.73995972 6.49411011 C96.1245712 6.31254448 97.50895778 6.12925434 98.89309692 5.94412231 C114.27388608 3.89408161 114.27388608 3.89408161 119.71484375 4.40625 C122.34074493 8.34510177 121.88510598 11.58888043 121.7265625 16.140625 C121.70390823 17.0108429 121.68125397 17.88106079 121.65791321 18.77764893 C121.6079035 20.62713059 121.55293043 22.47648363 121.4934082 24.32568359 C121.40403585 27.10365434 121.32845498 29.8817018 121.25585938 32.66015625 C121.13508013 37.09008655 120.98133972 41.51791233 120.80706787 45.94604492 C120.74725449 47.5416491 120.69445775 49.13753776 120.64996338 50.73364258 C120.59176028 52.81834016 120.51017252 54.90076788 120.421875 56.984375 C120.38167236 58.1384082 120.34146973 59.29244141 120.30004883 60.48144531 C119.58680994 64.04615198 118.58582853 65.22759748 115.71484375 67.40625 C113.65942383 68.27172852 113.65942383 68.27172852 111.484375 68.78515625 C110.68064453 68.98431641 109.87691406 69.18347656 109.04882812 69.38867188 C108.21673828 69.58009766 107.38464844 69.77152344 106.52734375 69.96875 C104.88728425 70.3628325 103.24795396 70.75996234 101.609375 71.16015625 C100.79645996 71.35843018 99.98354492 71.5567041 99.14599609 71.76098633 C95.98195538 72.60076938 92.91210235 73.65890026 89.81713867 74.72094727 C86.74257494 75.72318863 83.62294551 76.40501504 80.46484375 77.09375 C71.95360395 79.00900481 63.5557659 81.32178147 55.15234375 83.65625 C54.48803345 83.84077728 53.82372314 84.02530457 53.13928223 84.21542358 C49.32991917 85.2746988 45.52187279 86.33861904 41.71484375 87.40625 C41.71484375 88.72625 41.71484375 90.04625 41.71484375 91.40625 C49.2241372 91.86978663 55.83877971 90.10837949 63.08984375 88.28125 C74.75327342 85.43060316 86.45788672 83.01551258 98.27734375 80.90625 C99.01676208 80.7708783 99.75618042 80.63550659 100.51800537 80.49603271 C102.62491555 80.11204471 104.73368972 79.74123396 106.84375 79.375 C108.0510376 79.16294922 109.2583252 78.95089844 110.50219727 78.73242188 C113.59910909 78.41800025 115.75694411 78.48266697 118.71484375 79.40625 C119.37484375 80.06625 120.03484375 80.72625 120.71484375 81.40625 C120.38512896 84.70339793 120.09215985 86.0289339 117.71484375 88.40625 C114.77108348 88.90653672 111.86472464 89.30575495 108.90234375 89.65625 C99.81712874 90.8420439 90.87131455 92.47562511 81.90234375 94.34375 C80.65541748 94.60333496 79.40849121 94.86291992 78.1237793 95.13037109 C71.60071027 96.51317341 65.14876359 98.03485411 58.71484375 99.78125 C52.16426776 101.4666955 45.44100834 102.69645929 38.71484375 101.40625 C35.40994062 99.1225248 32.90739798 97.30915476 31.71484375 93.40625 C31.52968549 89.57964591 31.4109129 86.481775 32.45263672 82.79541016 C32.81777677 78.07578799 31.16654682 75.14000691 29.078125 70.984375 C28.68693481 70.17429993 28.29574463 69.36422485 27.8927002 68.52960205 C26.61836607 65.89801609 25.32293 63.27742826 24.02734375 60.65625 C23.1508424 58.85436365 22.27609258 57.05162426 21.40307617 55.24804688 C20.09138134 52.53899365 18.77853599 49.8305708 17.45967102 47.125 C13.71037825 39.43256698 10.08973931 31.68666934 6.52734375 23.90625 C6.02952393 22.8224707 5.5317041 21.73869141 5.01879883 20.62207031 C3.91527313 18.21779645 2.81374785 15.81263871 1.71484375 13.40625 C0.43867187 13.44105469 -0.8375 13.47585937 -2.15234375 13.51171875 C-3.82160146 13.53985231 -5.49087335 13.56715293 -7.16015625 13.59375 C-8.42279297 13.63145508 -8.42279297 13.63145508 -9.7109375 13.66992188 C-10.51660156 13.67958984 -11.32226562 13.68925781 -12.15234375 13.69921875 C-12.89597168 13.7149292 -13.63959961 13.73063965 -14.40576172 13.74682617 C-15.02596191 13.63443604 -15.64616211 13.5220459 -16.28515625 13.40625 C-18.28515625 10.40625 -18.28515625 10.40625 -18.03515625 7.34375 C-17.28515625 4.40625 -17.28515625 4.40625 -15.28515625 2.40625 C-10.28484328 1.08694918 -5.12243985 0.63345273 0 0 Z " fill="#3A5153" transform="translate(78.28515625,96.59375)"/>
<path d="M0 0 C0.99 0.99 0.99 0.99 2 2 C1.67028521 5.29714793 1.3773161 6.6226839 -1 9 C-3.94376027 9.50028672 -6.85011911 9.89950495 -9.8125 10.25 C-18.89771501 11.4357939 -27.8435292 13.06937511 -36.8125 14.9375 C-38.05942627 15.19708496 -39.30635254 15.45666992 -40.59106445 15.72412109 C-47.11418605 17.10693455 -53.56585483 18.62935186 -60 20.375 C-75.86374216 24.43954799 -75.86374216 24.43954799 -81.9140625 20.87109375 C-83.3125 19.5 -83.3125 19.5 -85 17 C-84.34 17 -83.68 17 -83 17 C-82.67 16.01 -82.34 15.02 -82 14 C-80.4375 12.3125 -80.4375 12.3125 -79 11 C-78.34 11.33 -77.68 11.66 -77 12 C-69.52126427 12.58621919 -62.84125903 10.69335929 -55.625 8.875 C-43.96157033 6.02435316 -32.25695703 3.60926258 -20.4375 1.5 C-19.69808167 1.3646283 -18.95866333 1.22925659 -18.19683838 1.08978271 C-16.0899282 0.70579471 -13.98115403 0.33498396 -11.87109375 -0.03125 C-10.66380615 -0.24330078 -9.45651855 -0.45535156 -8.21264648 -0.67382812 C-5.11573466 -0.98824975 -2.95789964 -0.92358303 0 0 Z " fill="#3B5253" transform="translate(197,176)"/>
<path d="M0 0 C0.66 6.27 1.32 12.54 2 19 C-0.68125 19.33 -3.3625 19.66 -6.125 20 C-6.95789551 20.10441406 -7.79079102 20.20882812 -8.64892578 20.31640625 C-17.64485848 21.39823638 -17.64485848 21.39823638 -21 21 C-23.76758556 18.32741165 -25.12478058 14.85709553 -26.6875 11.375 C-27.12449219 10.41335937 -27.56148438 9.45171875 -28.01171875 8.4609375 C-29 6 -29 6 -29 4 C-27.90300781 3.79503906 -26.80601563 3.59007813 -25.67578125 3.37890625 C-24.22135113 3.10678707 -22.76692422 2.83465075 -21.3125 2.5625 C-20.2306543 2.36043945 -20.2306543 2.36043945 -19.12695312 2.15429688 C-18.42119141 2.02216797 -17.71542969 1.89003906 -16.98828125 1.75390625 C-16.29299316 1.62516113 -15.59770508 1.49641602 -14.88134766 1.36376953 C-13.40709581 1.07871435 -11.94148437 0.74891024 -10.48046875 0.40234375 C-7.02950907 -0.15741821 -3.49606296 0 0 0 Z " fill="#C4CEC2" transform="translate(130,122)"/>
<path d="M0 0 C2.58095199 2.58095199 2.5740925 4.29847351 3.125 7.875 C3.29257813 8.92429688 3.46015625 9.97359375 3.6328125 11.0546875 C4 14 4 14 4 18 C5.22976562 17.7834375 6.45953125 17.566875 7.7265625 17.34375 C9.35932991 17.06223838 10.99214497 16.78100296 12.625 16.5 C13.43324219 16.35691406 14.24148437 16.21382812 15.07421875 16.06640625 C19.43877864 15.32123749 23.55238129 14.82727694 28 15 C27.34 16.32 26.68 17.64 26 19 C26.99 19.66 27.98 20.32 29 21 C21.08 21.99 13.16 22.98 5 24 C5.98296345 28.75725204 5.98296345 28.75725204 6.97460938 33.51269531 C7.63888341 36.77958797 8 39.64853954 8 43 C7.34 43 6.68 43 6 43 C5.34 43.66 4.68 44.32 4 45 C4 44.34 4 43.68 4 43 C3.34 43 2.68 43 2 43 C1.34 37.06 0.68 31.12 0 25 C-1.794375 25.33 -3.58875 25.66 -5.4375 26 C-10.72817299 26.89119284 -15.64573058 27.17847565 -21 27 C-20.34 29.31 -19.68 31.62 -19 34 C-20.485 34.495 -20.485 34.495 -22 35 C-23.10844919 31.67465243 -22.84454356 29.37817425 -22 26 C-21.34 26 -20.68 26 -20 26 C-21.9254644 23.7763932 -21.9254644 23.7763932 -25 23 C-24.67 22.34 -24.34 21.68 -24 21 C-16.41 20.67 -8.82 20.34 -1 20 C-1.66 17.03 -2.32 14.06 -3 11 C-3.30078125 8.22265625 -3.30078125 8.22265625 -3.3125 6.0625 C-3.32925781 5.33160156 -3.34601563 4.60070312 -3.36328125 3.84765625 C-3.24339844 3.23792969 -3.12351563 2.62820312 -3 2 C-2.01 1.34 -1.02 0.68 0 0 Z M-24 24 C-22 25 -22 25 -22 25 Z " fill="#3E5454" transform="translate(133,121)"/>
<path d="M0 0 C0.33808686 2.06172613 0.67027361 4.1244203 1 6.1875 C1.185625 7.33605469 1.37125 8.48460937 1.5625 9.66796875 C2 13 2 13 2 18 C-9.385 20.97 -9.385 20.97 -21 24 C-21.99 17.07 -22.98 10.14 -24 3 C-15.75470269 0.93867567 -8.4433444 -0.17964563 0 0 Z " fill="#C6D0C4" transform="translate(162,142)"/>
<path d="M0 0 C0.50354867 2.43681587 1.00296756 4.87435439 1.5 7.3125 C1.64308594 8.00279297 1.78617188 8.69308594 1.93359375 9.40429688 C2.52625044 12.32524773 3 15.01108122 3 18 C0.1259578 18.50612064 -2.74902873 19.00506541 -5.625 19.5 C-6.43324219 19.64308594 -7.24148437 19.78617188 -8.07421875 19.93359375 C-12.43877864 20.67876251 -16.55238129 21.17272306 -21 21 C-21.33808686 18.93827387 -21.67027361 16.8755797 -22 14.8125 C-22.185625 13.66394531 -22.37125 12.51539063 -22.5625 11.33203125 C-22.93489477 8.49584607 -23.08596021 5.85280436 -23 3 C-20.10496617 2.49494737 -17.20912047 1.9957978 -14.3125 1.5 C-13.08756836 1.28537109 -13.08756836 1.28537109 -11.83789062 1.06640625 C-7.85021752 0.38834038 -4.06269596 -0.19858392 0 0 Z " fill="#C6D0C4" transform="translate(158,118)"/>
<path d="M0 0 C3.43952148 2.09362177 5.78028175 4.11907831 7 8 C7.480151 12.32135899 7.29173086 14.4668367 5.1875 18.3125 C3 21 3 21 0 23 C-5.29977145 23.42740092 -8.74748241 23.52351458 -13 20 C-16.16955197 16.06538376 -16.53348798 12.97922113 -16 8 C-12.96728147 0.97686235 -7.29287522 -1.34342438 0 0 Z " fill="#3A5254" transform="translate(193,194)"/>
<path d="M0 0 C0.10349817 6.41688675 -0.25492456 12.62694402 -1 19 C-3.3736397 19.50734284 -5.74857425 20.00602386 -8.125 20.5 C-9.12273437 20.71462891 -9.12273437 20.71462891 -10.140625 20.93359375 C-14.16056422 21.7612283 -17.89904899 22.15330658 -22 22 C-22.33808686 19.93827387 -22.67027361 17.8755797 -23 15.8125 C-23.185625 14.66394531 -23.37125 13.51539062 -23.5625 12.33203125 C-23.93608948 9.48674706 -24.1673778 6.86111427 -24 4 C-22.45383757 2.45383757 -20.77212234 2.56281669 -18.6328125 2.24609375 C-17.74722656 2.11396484 -16.86164063 1.98183594 -15.94921875 1.84570312 C-15.01722656 1.71099609 -14.08523437 1.57628906 -13.125 1.4375 C-12.20074219 1.29892578 -11.27648437 1.16035156 -10.32421875 1.01757812 C-3.41671798 0 -3.41671798 0 0 0 Z " fill="#C6D0C4" transform="translate(188,113)"/>
<path d="M0 0 C3.67352987 0.0314874 5.02497629 0.17654817 8.25 2.125 C11.60683756 5.79654108 12.74668587 8.20875096 12.64453125 13.2421875 C11.94325942 16.92212881 9.89365677 18.73178744 7.25 21.3125 C3.53546768 23.16976616 -0.70579425 22.89751089 -4.75 22.3125 C-8.02081121 19.77595253 -10.4452895 17.52818066 -11.0234375 13.32421875 C-11.22157651 8.78988373 -11.28156961 6.96673952 -8.3125 3.3125 C-7.466875 2.6525 -6.62125 1.9925 -5.75 1.3125 C-4.10962605 -0.32787395 -2.25523159 0.06338669 0 0 Z " fill="#395152" transform="translate(122.75,203.6875)"/>
<path d="M0 0 C0.50400451 2.91602609 1.00334666 5.83272092 1.5 8.75 C1.64308594 9.575 1.78617188 10.4 1.93359375 11.25 C2.06894531 12.04921875 2.20429688 12.8484375 2.34375 13.671875 C2.46943359 14.4050293 2.59511719 15.13818359 2.72460938 15.89355469 C3 18 3 18 3 22 C1.0636296 22.50435694 -0.87414146 23.00333874 -2.8125 23.5 C-3.89144531 23.7784375 -4.97039062 24.056875 -6.08203125 24.34375 C-9 25 -9 25 -12 25 C-12.48210937 23.87980469 -12.96421875 22.75960937 -13.4609375 21.60546875 C-14.0988047 20.13274595 -14.73683401 18.66009335 -15.375 17.1875 C-15.85066406 16.08051758 -15.85066406 16.08051758 -16.3359375 14.95117188 C-16.6453125 14.23896484 -16.9546875 13.52675781 -17.2734375 12.79296875 C-17.69761963 11.81106567 -17.69761963 11.81106567 -18.13037109 10.80932617 C-19.07472913 8.73677201 -19.07472913 8.73677201 -21 6 C-21 4.68 -21 3.36 -21 2 C-18.62561751 1.6616656 -16.25065041 1.32920998 -13.875 1 C-12.87726563 0.85691406 -12.87726563 0.85691406 -11.859375 0.7109375 C-7.87371019 0.16388547 -4.02140062 -0.10022182 0 0 Z " fill="#C4CEC3" transform="translate(133,146)"/>
<path d="M0 0 C0 5.28 0 10.56 0 16 C-2.62430124 16.6695256 -5.24936657 17.33573718 -7.875 18 C-8.62136719 18.19078125 -9.36773437 18.3815625 -10.13671875 18.578125 C-15.7734375 20 -15.7734375 20 -18 20 C-18.33591896 17.72954771 -18.66865065 15.45862367 -19 13.1875 C-19.185625 11.92292969 -19.37125 10.65835938 -19.5625 9.35546875 C-20 6 -20 6 -20 3 C-13.27587868 1.23049439 -6.99878242 0 0 0 Z " fill="#C3CDC3" transform="translate(187,138)"/>
<path d="M0 0 C5.34264703 -0.28621323 9.0592813 0.14535037 13.98046875 2.203125 C17.23773964 3.48839243 20.59591584 4.19225122 24 5 C24.99 5.33 25.98 5.66 27 6 C27 6.66 27 7.32 27 8 C17.95532459 8.65779458 9.68812802 6.23437506 1 4 C0.67 2.68 0.34 1.36 0 0 Z " fill="#6A857A" transform="translate(29,94)"/>
<path d="M0 0 C5.95731003 3.40417716 10.45590156 7.25221832 14.8125 12.5625 C15.60269531 13.51253906 16.39289062 14.46257812 17.20703125 15.44140625 C19 18 19 18 19 21 C13.83752522 19.54954498 11.2274729 16.39197158 7.8125 12.5 C6.75661528 11.3228226 5.70062993 10.14573545 4.64453125 8.96875 C3.77183594 7.9890625 2.89914063 7.009375 2 6 C1.34 5.34 0.68 4.68 0 4 C0 2.68 0 1.36 0 0 Z " fill="#647F72" transform="translate(44,68)"/>
<path d="M0 0 C0.625 3.0625 0.625 3.0625 1 6 C-3.92737019 7.97094808 -7.78020872 8.1799928 -13 8 C-13.33 6.35 -13.66 4.7 -14 3 C-12.75108386 2.51801537 -11.50081192 2.03954323 -10.25 1.5625 C-9.55390625 1.29566406 -8.8578125 1.02882812 -8.140625 0.75390625 C-2.47965739 -1.23982869 -2.47965739 -1.23982869 0 0 Z " fill="#BFCCC3" transform="translate(133,181)"/>
<path d="M0 0 C2.23230232 2.23230232 2.42329567 3.09783553 3.03515625 6.10546875 C3.20466797 6.92466797 3.37417969 7.74386719 3.54882812 8.58789062 C3.71833984 9.44576172 3.88785156 10.30363281 4.0625 11.1875 C4.23587891 12.02603516 4.40925781 12.86457031 4.58789062 13.72851562 C5.55416433 18.4710314 6.37014083 23.20138221 7 28 C6.01 27.67 5.02 27.34 4 27 C2.37281235 23.7403071 1.58628528 20.48548335 0.9296875 16.91796875 C0.75566406 15.98662109 0.58164063 15.05527344 0.40234375 14.09570312 C0.22832031 13.13599609 0.05429688 12.17628906 -0.125 11.1875 C-0.30675781 10.20845703 -0.48851563 9.22941406 -0.67578125 8.22070312 C-1.12178851 5.81461131 -1.56303717 3.40774786 -2 1 C-1.34 0.67 -0.68 0.34 0 0 Z " fill="#648174" transform="translate(71,57)"/>
<path d="M0 0 C1.9375 0.3359375 1.9375 0.3359375 4.9375 2.3359375 C4.9375 3.3259375 4.9375 4.3159375 4.9375 5.3359375 C4.2775 5.0059375 3.6175 4.6759375 2.9375 4.3359375 C2.9375 4.9959375 2.9375 5.6559375 2.9375 6.3359375 C0.95182292 6.56380208 -1.03385417 6.79166667 -3.01953125 7.01953125 C-5.25646393 7.30764485 -5.25646393 7.30764485 -8.0625 8.3359375 C-9.07810704 5.75075595 -9.20965729 4.689115 -8.125 2.0859375 C-5.37771092 -0.24509566 -3.5018776 -0.06632344 0 0 Z " fill="#C5CFC4" transform="translate(123.0625,197.6640625)"/>
<path d="M0 0 C-0.66 1.32 -1.32 2.64 -2 4 C-1.01 4.66 -0.02 5.32 1 6 C-2.63 6.33 -6.26 6.66 -10 7 C-10 5.68 -10 4.36 -10 3 C-10.66 2.34 -11.32 1.68 -12 1 C-7.93631321 0.22596442 -4.13574827 -0.0984702 0 0 Z " fill="#495F5F" transform="translate(161,136)"/>
<path d="M0 0 C3.29206734 2.22214545 5.9186434 4.60410239 8 8 C8 8.99 8 9.98 8 11 C2.36310966 9.67367286 0.06814317 5.53368235 -3 1 C-2.01 0.67 -1.02 0.34 0 0 Z " fill="#698376" transform="translate(55,78)"/>
<path d="M0 0 C-1.52708963 3.43595166 -3.59927045 6.11912454 -6 9 C-7.32 8.34 -8.64 7.68 -10 7 C-10.66 7.66 -11.32 8.32 -12 9 C-12.33 8.01 -12.66 7.02 -13 6 C-11.21118264 4.99491199 -9.41885304 3.99607264 -7.625 3 C-6.62726563 2.443125 -5.62953125 1.88625 -4.6015625 1.3125 C-2 0 -2 0 0 0 Z " fill="#D2D7CE" transform="translate(76,20)"/>
<path d="M0 0 C2 2 2 2 2.1953125 3.9453125 C2.13020833 5.96354167 2.06510417 7.98177083 2 10 C1.34 10 0.68 10 0 10 C-0.66 7.03 -1.32 4.06 -2 1 C-1.34 0.67 -0.68 0.34 0 0 Z " fill="#59796D" transform="translate(71,57)"/>
<path d="M0 0 C2.64 0.33 5.28 0.66 8 1 C8 1.99 8 2.98 8 4 C5.36 3.67 2.72 3.34 0 3 C0 2.01 0 1.02 0 0 Z " fill="#567A6E" transform="translate(34,95)"/>
<path d="M0 0 C1.32 0.33 2.64 0.66 4 1 C3.67 3.31 3.34 5.62 3 8 C2.34 8 1.68 8 1 8 C0.67 5.36 0.34 2.72 0 0 Z " fill="#B5C1B9" transform="translate(168,150)"/>
<path d="M0 0 C0 2.31 0 4.62 0 7 C-1.65 7.33 -3.3 7.66 -5 8 C-4.40138258 5.64828869 -3.73075648 3.3140622 -3 1 C-1 0 -1 0 0 0 Z " fill="#445A5C" transform="translate(166,128)"/>
<path d="M0 0 C2.475 0.495 2.475 0.495 5 1 C5.33 2.32 5.66 3.64 6 5 C4.35 4.67 2.7 4.34 1 4 C0.67 2.68 0.34 1.36 0 0 Z " fill="#597B6F" transform="translate(49,74)"/>
<path d="M0 0 C1.32 0.66 2.64 1.32 4 2 C1.03 4.475 1.03 4.475 -2 7 C-2 3.89448334 -1.4606285 2.64738916 0 0 Z " fill="#D7DBD3" transform="translate(219,215)"/>
<path d="M0 0 C-1.5 1.625 -1.5 1.625 -4 3 C-6.83163803 2.65955497 -9.25986036 1.86771089 -12 1 C-12 0.67 -12 0.34 -12 0 C-3.42857143 -1.28571429 -3.42857143 -1.28571429 0 0 Z " fill="#526565" transform="translate(163,106)"/>
<path d="M0 0 C0.99 0.66 1.98 1.32 3 2 C1.02 4.97 1.02 4.97 -1 8 C-1.66 7.01 -2.32 6.02 -3 5 C-2.01 3.35 -1.02 1.7 0 0 Z " fill="#D7DCD5" transform="translate(233,197)"/>
<path d="M0 0 C0.66 0.33 1.32 0.66 2 1 C2 1.99 2 2.98 2 4 C1.34 3.67 0.68 3.34 0 3 C0 3.66 0 4.32 0 5 C-1.65 5 -3.3 5 -5 5 C-3.35 3.35 -1.7 1.7 0 0 Z " fill="#B4C0B6" transform="translate(126,199)"/>
<path d="M0 0 C0.99 0.33 1.98 0.66 3 1 C4.1875 3.5625 4.1875 3.5625 5 6 C4.01 6.495 4.01 6.495 3 7 C3 6.34 3 5.68 3 5 C2.34 5 1.68 5 1 5 C0.67 3.35 0.34 1.7 0 0 Z " fill="#D5D8D1" transform="translate(232,68)"/>
<path d="M0 0 C4.875 4.75 4.875 4.75 6 7 C4.35 6.67 2.7 6.34 1 6 C0.67 4.02 0.34 2.04 0 0 Z " fill="#DADDD7" transform="translate(223,54)"/>
</svg>
